{
  "accessors": [
    {
      "bufferView": 2,
      "componentType": 5126,
      "count": 482,
      "max": [
        0.7069600224494934,
        0.4000000059604645,
        3.0
      ],
      "min": [
        -0.31007999181747437,
        -0.4000000059604645,
        0.0004299999854993075
      ],
      "type": "VEC3"
    },
    {
      "bufferView": 2,
      "byteOffset": 5784,
      "componentType": 5126,
      "count": 482,
      "max": [
        0.9967835545539856,
        0.9999983906745911,
        0.9999455809593201
      ],
      "min": [
        -0.9997238516807556,
        -0.9999983906745911,
        -0.9999036192893982
      ],
      "type": "VEC3"
    },
    {
      "bufferView": 1,
      "componentType": 5126,
      "count": 482,
      "max": [
        1.0,
        1.0
      ],
      "min": [
        0.0,
        0.0
      ],
      "type": "VEC2"
    },
    {
      "bufferView": 0,
      "componentType": 5125,
      "count": 2880,
      "type": "SCALAR"
    },
    {
      "bufferView": 2,
      "byteOffset": 11568,
      "componentType": 5126,
      "count": 482,
      "max": [
        0.7069600224494934,
        0.4000000059604645,
        3.0
      ],
      "min": [
        -0.31007999181747437,
        -0.4000000059604645,
        0.0004299999854993075
      ],
      "type": "VEC3"
    },
    {
      "bufferView": 2,
      "byteOffset": 17352,
      "componentType": 5126,
      "count": 482,
      "max": [
        0.9967835545539856,
        0.9999983906745911,
        0.9999455809593201
      ],
      "min": [
        -0.9997238516807556,
        -0.9999983906745911,
        -0.9999036192893982
      ],
      "type": "VEC3"
    },
    {
      "bufferView": 1,
      "byteOffset": 3856,
      "componentType": 5126,
      "count": 482,
      "max": [
        1.0,
        1.0
      ],
      "min": [
        0.0,
        0.0
      ],
      "type": "VEC2"
    },
    {
      "bufferView": 0,
      "byteOffset": 11520,
      "componentType": 5125,
      "count": 2880,
      "type": "SCALAR"
    },
    {
      "bufferView": 2,
      "byteOffset": 23136,
      "componentType": 5126,
      "count": 482,
      "max": [
        0.7069600224494934,
        0.4000000059604645,
        3.0
      ],
      "min": [
        -0.31007999181747437,
        -0.4000000059604645,
        0.0004299999854993075
      ],
      "type": "VEC3"
    },
    {
      "bufferView": 2,
      "byteOffset": 28920,
      "componentType": 5126,
      "count": 482,
      "max": [
        0.9967835545539856,
        0.9999983906745911,
        0.9999455809593201
      ],
      "min": [
        -0.9997238516807556,
        -0.9999983906745911,
        -0.9999036192893982
      ],
      "type": "VEC3"
    },
    {
      "bufferView": 1,
      "byteOffset": 7712,
      "componentType": 5126,
      "count": 482,
      "max": [
        1.0,
        1.0
      ],
      "min": [
        0.0,
        0.0
      ],
      "type": "VEC2"
    },
    {
      "bufferView": 0,
      "byteOffset": 23040,
      "componentType": 5125,
      "count": 2880,
      "type": "SCALAR"
    },
    {
      "bufferView": 2,
      "byteOffset": 34704,
      "componentType": 5126,
      "count": 482,
      "max": [
        0.7069600224494934,
        0.4000000059604645,
        3.0
      ],
      "min": [
        -0.31007999181747437,
        -0.4000000059604645,
        0.0004299999854993075
      ],
      "type": "VEC3"
    },
    {
      "bufferView": 2,
      "byteOffset": 40488,
      "componentType": 5126,
      "count": 482,
      "max": [
        0.9967835545539856,
        0.9999983906745911,
        0.9999455809593201
      ],
      "min": [
        -0.9997238516807556,
        -0.9999983906745911,
        -0.9999036192893982
      ],
      "type": "VEC3"
    },
    {
      "bufferView": 1,
      "byteOffset": 11568,
      "componentType": 5126,
      "count": 482,
      "max": [
        1.0,
        1.0
      ],
      "min": [
        0.0,
        0.0
      ],
      "type": "VEC2"
    },
    {
      "bufferView": 0,
      "byteOffset": 34560,
      "componentType": 5125,
      "count": 2880,
      "type": "SCALAR"
    },
    {
      "bufferView": 3,
      "componentType": 5126,
      "count": 2,
      "max": [
        20.833330154418945
      ],
      "min": [
        0.041669998317956924
      ],
      "type": "SCALAR"
    },
    {
      "bufferView": 4,
      "componentType": 5126,
      "count": 2,
      "max": [
        0.0,
        0.0,
        0.0
      ],
      "min": [
        0.0,
        0.0,
        0.0
      ],
      "type": "VEC3"
    },
    {
      "bufferView": 3,
      "byteOffset": 8,
      "componentType": 5126,
      "count": 496,
      "max": [
        20.833330154418945
      ],
      "min": [
        0.041669998317956924
      ],
      "type": "SCALAR"
    },
    {
      "bufferView": 5,
      "componentType": 5126,
      "count": 496,
      "max": [
        0.08342000097036362,
        0.0,
        0.8618599772453308,
        0.7406600117683411
      ],
      "min": [
        -0.037629999220371246,
        -0.0846100002527237,
        0.6705099940299988,
        0.4978199899196625
      ],
      "type": "VEC4"
    },
    {
      "bufferView": 3,
      "byteOffset": 1992,
      "componentType": 5126,
      "count": 500,
      "max": [
        20.833330154418945
      ],
      "min": [
        0.041669998317956924
      ],
      "type": "SCALAR"
    },
    {
      "bufferView": 4,
      "byteOffset": 24,
      "componentType": 5126,
      "count": 500,
      "max": [
        1.1533600091934204,
        1.0457899570465088,
        1.194309949874878
      ],
      "min": [
        1.0,
        0.8995000123977661,
        1.0234800577163696
      ],
      "type": "VEC3"
    },
    {
      "bufferView": 3,
      "byteOffset": 3992,
      "componentType": 5126,
      "count": 2,
      "max": [
        20.833330154418945
      ],
      "min": [
        0.041669998317956924
      ],
      "type": "SCALAR"
    },
    {
      "bufferView": 4,
      "byteOffset": 6024,
      "componentType": 5126,
      "count": 2,
      "max": [
        0.0,
        0.0,
        0.0
      ],
      "min": [
        0.0,
        0.0,
        0.0
      ],
      "type": "VEC3"
    },
    {
      "bufferView": 3,
      "byteOffset": 4000,
      "componentType": 5126,
      "count": 499,
      "max": [
        20.833330154418945
      ],
      "min": [
        0.041669998317956924
      ],
      "type": "SCALAR"
    },
    {
      "bufferView": 5,
      "byteOffset": 7936,
      "componentType": 5126,
      "count": 499,
      "max": [
        0.047970000654459,
        0.14145000278949738,
        1.0,
        0.0995199978351593
      ],
      "min": [
        -0.05982999876141548,
        -0.1658799946308136,
        -0.9999200105667114,
        -0.009829999879002571
      ],
      "type": "VEC4"
    },
    {
      "bufferView": 3,
      "byteOffset": 5996,
      "componentType": 5126,
      "count": 500,
      "max": [
        20.833330154418945
      ],
      "min": [
        0.041669998317956924
      ],
      "type": "SCALAR"
    },
    {
      "bufferView": 4,
      "byteOffset": 6048,
      "componentType": 5126,
      "count": 500,
      "max": [
        1.1356199979782104,
        1.0736900568008423,
        1.2403099536895752
      ],
      "min": [
        0.9550899863243103,
        0.9550399780273438,
        1.0515899658203125
      ],
      "type": "VEC3"
    },
    {
      "bufferView": 3,
      "byteOffset": 7996,
      "componentType": 5126,
      "count": 2,
      "max": [
        20.833330154418945
      ],
      "min": [
        0.041669998317956924
      ],
      "type": "SCALAR"
    },
    {
      "bufferView": 4,
      "byteOffset": 12048,
      "componentType": 5126,
      "count": 2,
      "max": [
        0.0,
        0.0,
        0.0
      ],
      "min": [
        0.0,
        0.0,
        0.0
      ],
      "type": "VEC3"
    },
    {
      "bufferView": 3,
      "byteOffset": 8004,
      "componentType": 5126,
      "count": 499,
      "max": [
        20.833330154418945
      ],
      "min": [
        0.041669998317956924
      ],
      "type": "SCALAR"
    },
    {
      "bufferView": 5,
      "byteOffset": 15920,
      "componentType": 5126,
      "count": 499,
      "max": [
        0.11846999824047089,
        0.03506999835371971,
        -0.6359500288963318,
        0.767549991607666
      ],
      "min": [
        0.0,
        -0.05992000177502632,
        -0.8115299940109253,
        0.5736299753189087
      ],
      "type": "VEC4"
    },
    {
      "bufferView": 3,
      "byteOffset": 10000,
      "componentType": 5126,
      "count": 500,
      "max": [
        20.833330154418945
      ],
      "min": [
        0.041669998317956924
      ],
      "type": "SCALAR"
    },
    {
      "bufferView": 4,
      "byteOffset": 12072,
      "componentType": 5126,
      "count": 500,
      "max": [
        1.0345100164413452,
        1.1464999914169312,
        1.1761200428009033
      ],
      "min": [
        0.9419500231742859,
        0.9281899929046631,
        0.9302399754524231
      ],
      "type": "VEC3"
    },
    {
      "bufferView": 3,
      "byteOffset": 12000,
      "componentType": 5126,
      "count": 2,
      "max": [
        20.833330154418945
      ],
      "min": [
        0.041669998317956924
      ],
      "type": "SCALAR"
    },
    {
      "bufferView": 4,
      "byteOffset": 18072,
      "componentType": 5126,
      "count": 2,
      "max": [
        0.0,
        0.0,
        0.0
      ],
      "min": [
        0.0,
        0.0,
        0.0
      ],
      "type": "VEC3"
    },
    {
      "bufferView": 3,
      "byteOffset": 12008,
      "componentType": 5126,
      "count": 500,
      "max": [
        20.833330154418945
      ],
      "min": [
        0.041669998317956924
      ],
      "type": "SCALAR"
    },
    {
      "bufferView": 5,
      "byteOffset": 23904,
      "componentType": 5126,
      "count": 500,
      "max": [
        0.004639999940991402,
        0.06372000277042389,
        0.27685999870300293,
        1.0
      ],
      "min": [
        -0.057750001549720764,
        -0.056290000677108765,
        -0.12456999719142914,
        0.9606299996376038
      ],
      "type": "VEC4"
    },
    {
      "bufferView": 3,
      "byteOffset": 14008,
      "componentType": 5126,
      "count": 500,
      "max": [
        20.833330154418945
      ],
      "min": [
        0.041669998317956924
      ],
      "type": "SCALAR"
    },
    {
      "bufferView": 4,
      "byteOffset": 18096,
      "componentType": 5126,
      "count": 500,
      "max": [
        1.0548900365829468,
        1.0199300050735474,
        1.1214599609375
      ],
      "min": [
        0.9482300281524658,
        0.9345899820327759,
        0.8860999941825867
      ],
      "type": "VEC3"
    }
  ],
  "animations": [
    {
      "channels": [
        {
          "sampler": 0,
          "target": {
            "node": 10,
            "path": "translation"
          }
        },
        {
          "sampler": 1,
          "target": {
            "node": 10,
            "path": "rotation"
          }
        },
        {
          "sampler": 2,
          "target": {
            "node": 10,
            "path": "scale"
          }
        },
        {
          "sampler": 3,
          "target": {
            "node": 8,
            "path": "translation"
          }
        },
        {
          "sampler": 4,
          "target": {
            "node": 8,
            "path": "rotation"
          }
        },
        {
          "sampler": 5,
          "target": {
            "node": 8,
            "path": "scale"
          }
        },
        {
          "sampler": 6,
          "target": {
            "node": 6,
            "path": "translation"
          }
        },
        {
          "sampler": 7,
          "target": {
            "node": 6,
            "path": "rotation"
          }
        },
        {
          "sampler": 8,
          "target": {
            "node": 6,
            "path": "scale"
          }
        },
        {
          "sampler": 9,
          "target": {
            "node": 4,
            "path": "translation"
          }
        },
        {
          "sampler": 10,
          "target": {
            "node": 4,
            "path": "rotation"
          }
        },
        {
          "sampler": 11,
          "target": {
            "node": 4,
            "path": "scale"
          }
        }
      ],
      "name": "Take 01",
      "samplers": [
        {
          "input": 16,
          "interpolation": "LINEAR",
          "output": 17
        },
        {
          "input": 18,
          "interpolation": "LINEAR",
          "output": 19
        },
        {
          "input": 20,
          "interpolation": "LINEAR",
          "output": 21
        },
        {
          "input": 22,
          "interpolation": "LINEAR",
          "output": 23
        },
        {
          "input": 24,
          "interpolation": "LINEAR",
          "output": 25
        },
        {
          "input": 26,
          "interpolation": "LINEAR",
          "output": 27
        },
        {
          "input": 28,
          "interpolation": "LINEAR",
          "output": 29
        },
        {
          "input": 30,
          "interpolation": "LINEAR",
          "output": 31
        },
        {
          "input": 32,
          "interpolation": "LINEAR",
          "output": 33
        },
        {
          "input": 34,
          "interpolation": "LINEAR",
          "output": 35
        },
        {
          "input": 36,
          "interpolation": "LINEAR",
          "output": 37
        },
        {
          "input": 38,
          "interpolation": "LINEAR",
          "output": 39
        }
      ]
    }
  ],
  "asset": {
    "extras": {
      "author": "ayvlasov (https://sketchfab.com/ayvlasov)",
      "license": "CC-BY-4.0 (http://creativecommons.org/licenses/by/4.0/)",
      "source": "https://sketchfab.com/3d-models/flame-animation-aa97f24da2a041dcb086b63696f33117",
      "title": "Flame Animation"
    },
    "generator": "Sketchfab-12.67.0",
    "version": "2.0"
  },
  "bufferViews": [
    {
      "buffer": 0,
      "byteLength": 46080,
      "name": "floatBufferViews",
      "target": 34963
    },
    {
      "buffer": 0,
      "byteLength": 15424,
      "byteOffset": 46080,
      "byteStride": 8,
      "name": "floatBufferViews",
      "target": 34962
    },
    {
      "buffer": 0,
      "byteLength": 46272,
      "byteOffset": 61504,
      "byteStride": 12,
      "name": "floatBufferViews",
      "target": 34962
    },
    {
      "buffer": 0,
      "byteLength": 16008,
      "byteOffset": 107776,
      "name": "floatBufferViews"
    },
    {
      "buffer": 0,
      "byteLength": 24096,
      "byteOffset": 123784,
      "byteStride": 12,
      "name": "floatBufferViews"
    },
    {
      "buffer": 0,
      "byteLength": 31904,
      "byteOffset": 147880,
      "byteStride": 16,
      "name": "floatBufferViews"
    }
  ],
  "buffers": [
    {
      "byteLength": 179784,
      "uri": "scene.bin"
    }
  ],
  "images": [
    {
      "uri": "textures/MaterialFire_baseColor.png"
    },
    {
      "uri": "textures/MaterialFire_metallicRoughness.png"
    },
    {
      "uri": "textures/MaterialFire_emissive.png"
    }
  ],
  "materials": [
    {
      "alphaMode": "BLEND",
      "emissiveFactor": [
        1.0,
        1.0,
        1.0
      ],
      "emissiveTexture": {
        "index": 2
      },
      "name": "MaterialFire",
      "pbrMetallicRoughness": {
        "baseColorFactor": [
          1.0,
          1.0,
          1.0,
          0.36
        ],
        "baseColorTexture": {
          "index": 0
        },
        "metallicFactor": 0.44,
        "metallicRoughnessTexture": {
          "index": 1
        },
        "roughnessFactor": 0.49
      }
    }
  ],
  "meshes": [
    {
      "name": "Flame1_0",
      "primitives": [
        {
          "attributes": {
            "NORMAL": 1,
            "POSITION": 0,
            "TEXCOORD_0": 2
          },
          "indices": 3,
          "material": 0,
          "mode": 4
        }
      ]
    },
    {
      "name": "Flame0_0",
      "primitives": [
        {
          "attributes": {
            "NORMAL": 5,
            "POSITION": 4,
            "TEXCOORD_0": 6
          },
          "indices": 7,
          "material": 0,
          "mode": 4
        }
      ]
    },
    {
      "name": "Flame2_0",
      "primitives": [
        {
          "attributes": {
            "NORMAL": 9,
            "POSITION": 8,
            "TEXCOORD_0": 10
          },
          "indices": 11,
          "material": 0,
          "mode": 4
        }
      ]
    },
    {
      "name": "Flame3_0",
      "primitives": [
        {
          "attributes": {
            "NORMAL": 13,
            "POSITION": 12,
            "TEXCOORD_0": 14
          },
          "indices": 15,
          "material": 0,
          "mode": 4
        }
      ]
    }
  ],
  "nodes": [
    {
      "children": [
        1
      ],
      "matrix": [
        1.0,
        0.0,
        0.0,
        0.0,
        0.0,
        2.220446049250313e-16,
        -1.0,
        0.0,
        0.0,
        1.0,
        2.220446049250313e-16,
        0.0,
        0.0,
        0.0,
        0.0,
        1.0
      ],
      "name": "Sketchfab_model"
    },
    {
      "children": [
        2,
        4,
        6,
        8,
        10
      ],
      "name": "Root"
    },
    {
      "children": [
        3
      ],
      "matrix": [
        -0.29086000000000006,
        0.9551700000000001,
        -0.05519000000000001,
        0.0,
        -0.7711,
        -0.19988000000000003,
        0.6045200000000001,
        0.0,
        0.5663900000000001,
        0.21839000000000003,
        0.7946700000000001,
        0.0,
        4.076250000000001,
        1.00545,
        5.903860000000001,
        1.0
      ],
      "name": "Lamp"
    },
    {
      "name": "Lamp"
    },
    {
      "children": [
        5
      ],
      "name": "Flame1",
      "scale": [
        1.0,
        1.0,
        1.0981500148773193
      ]
    },
    {
      "mesh": 0,
      "name": "Flame1_0"
    },
    {
      "children": [
        7
      ],
      "name": "Flame0",
      "rotation": [
        0.0,
        0.0,
        -0.7071067690849304,
        0.7071067690849304
      ],
      "scale": [
        1.0,
        1.0,
        1.0357600450515747
      ]
    },
    {
      "mesh": 1,
      "name": "Flame0_0"
    },
    {
      "children": [
        9
      ],
      "name": "Flame2",
      "rotation": [
        0.0,
        0.0,
        1.0,
        0.0
      ],
      "scale": [
        1.0,
        1.0,
        1.0625300407409668
      ]
    },
    {
      "mesh": 2,
      "name": "Flame2_0"
    },
    {
      "children": [
        11
      ],
      "name": "Flame3",
      "rotation": [
        0.0,
        0.0,
        0.7071067690849304,
        0.7071067690849304
      ],
      "scale": [
        1.0,
        1.0,
        1.0461900234222412
      ]
    },
    {
      "mesh": 3,
      "name": "Flame3_0"
    }
  ],
  "samplers": [
    {
      "magFilter": 9729,
      "minFilter": 9987,
      "wrapS": 10497,
      "wrapT": 10497
    }
  ],
  "scene": 0,
  "scenes": [
    {
      "name": "Sketchfab_Scene",
      "nodes": [
        0
      ]
    }
  ],
  "textures": [
    {
      "sampler": 0,
      "source": 0
    },
    {
      "sampler": 0,
      "source": 1
    },
    {
      "sampler": 0,
      "source": 2
    }
  ]
}
