{
  "accessors": [
    {
      "bufferView": 2,
      "componentType": 5126,
      "count": 4338,
      "max": [
        23.05088233947754,
        54.64129638671875,
        16.82712173461914
      ],
      "min": [
        -23.05093002319336,
        0.41125500202178955,
        -9.809346199035645
      ],
      "type": "VEC3"
    },
    {
      "bufferView": 2,
      "byteOffset": 52056,
      "componentType": 5126,
      "count": 4338,
      "max": [
        0.9998887777328491,
        0.9494080543518066,
        0.9990596175193787
      ],
      "min": [
        -0.9998888373374939,
        -0.9999991655349731,
        -0.9974257946014404
      ],
      "type": "VEC3"
    },
    {
      "bufferView": 1,
      "componentType": 5126,
      "count": 4338,
      "max": [
        0.9891536235809326,
        0.9825609922409058
      ],
      "min": [
        0.05435100197792053,
        0.06419403105974197
      ],
      "type": "VEC2"
    },
    {
      "bufferView": 1,
      "byteOffset": 34704,
      "componentType": 5126,
      "count": 4338,
      "max": [
        0.9891536235809326,
        0.9825609922409058
      ],
      "min": [
        0.05435100197792053,
        0.06419403105974197
      ],
      "type": "VEC2"
    },
    {
      "bufferView": 1,
      "byteOffset": 69408,
      "componentType": 5126,
      "count": 4338,
      "max": [
        0.9891536235809326,
        0.9825609922409058
      ],
      "min": [
        0.05435100197792053,
        0.06419403105974197
      ],
      "type": "VEC2"
    },
    {
      "bufferView": 0,
      "componentType": 5125,
      "count": 22980,
      "type": "SCALAR"
    },
    {
      "bufferView": 2,
      "byteOffset": 104112,
      "componentType": 5126,
      "count": 7921,
      "max": [
        0.20083722472190857,
        0.18136586248874664,
        -0.8821811079978943
      ],
      "min": [
        -0.3510969877243042,
        -0.20255354046821594,
        -2.173492431640625
      ],
      "type": "VEC3"
    },
    {
      "bufferView": 2,
      "byteOffset": 199164,
      "componentType": 5126,
      "count": 7921,
      "max": [
        0.9996218681335449,
        0.9999765157699585,
        0.9974216222763062
      ],
      "min": [
        -0.9997599124908447,
        -0.9999668598175049,
        -0.5513222813606262
      ],
      "type": "VEC3"
    },
    {
      "bufferView": 3,
      "componentType": 5126,
      "count": 7921,
      "max": [
        0.9991071224212646,
        0.7773175835609436,
        0.9999905824661255,
        1.0
      ],
      "min": [
        -0.6396586298942566,
        -0.9854831099510193,
        -0.9999908804893494,
        -1.0
      ],
      "type": "VEC4"
    },
    {
      "bufferView": 1,
      "byteOffset": 104112,
      "componentType": 5126,
      "count": 7921,
      "max": [
        0.6869856119155884,
        0.6869856119155884
      ],
      "min": [
        0.03836527466773987,
        0.03836527466773987
      ],
      "type": "VEC2"
    },
    {
      "bufferView": 0,
      "byteOffset": 91920,
      "componentType": 5125,
      "count": 46464,
      "type": "SCALAR"
    }
  ],
  "asset": {
    "extras": {
      "author": "kira.is.real (https://sketchfab.com/jadeisreal0615)",
      "license": "CC-BY-4.0 (http://creativecommons.org/licenses/by/4.0/)",
      "source": "https://sketchfab.com/3d-models/ghost-4e71afbfee0047768ed0ddb3982d9887",
      "title": "Ghost"
    },
    "generator": "Sketchfab-16.9.0",
    "version": "2.0"
  },
  "bufferViews": [
    {
      "buffer": 0,
      "byteLength": 277776,
      "name": "floatBufferViews",
      "target": 34963
    },
    {
      "buffer": 0,
      "byteLength": 167480,
      "byteOffset": 277776,
      "byteStride": 8,
      "name": "floatBufferViews",
      "target": 34962
    },
    {
      "buffer": 0,
      "byteLength": 294216,
      "byteOffset": 445256,
      "byteStride": 12,
      "name": "floatBufferViews",
      "target": 34962
    },
    {
      "buffer": 0,
      "byteLength": 126736,
      "byteOffset": 739472,
      "byteStride": 16,
      "name": "floatBufferViews",
      "target": 34962
    }
  ],
  "buffers": [
    {
      "byteLength": 866208,
      "uri": "scene.bin"
    }
  ],
  "images": [
    {
      "uri": "textures/Plane__0_baseColor.png"
    },
    {
      "uri": "textures/Plane__0_metallicRoughness.png"
    },
    {
      "uri": "textures/Plane__0_normal.png"
    }
  ],
  "materials": [
    {
      "doubleSided": true,
      "name": "Plane__0",
      "normalTexture": {
        "index": 2
      },
      "pbrMetallicRoughness": {
        "baseColorTexture": {
          "index": 0
        },
        "metallicRoughnessTexture": {
          "index": 1
        }
      }
    },
    {
      "doubleSided": true,
      "name": "Ch36_Body",
      "pbrMetallicRoughness": {
        "baseColorTexture": {
          "index": 0
        },
        "metallicFactor": 0.0,
        "roughnessFactor": 0.7885257473118872
      }
    }
  ],
  "meshes": [
    {
      "name": "Ch36_Ch36_Body_0",
      "primitives": [
        {
          "attributes": {
            "NORMAL": 1,
            "POSITION": 0,
            "TEXCOORD_0": 2,
            "TEXCOORD_1": 3,
            "TEXCOORD_2": 4
          },
          "indices": 5,
          "material": 1,
          "mode": 4
        }
      ]
    },
    {
      "name": "Plane__0",
      "primitives": [
        {
          "attributes": {
            "NORMAL": 7,
            "POSITION": 6,
            "TANGENT": 8,
            "TEXCOORD_0": 9
          },
          "indices": 10,
          "material": 0,
          "mode": 4
        }
      ]
    }
  ],
  "nodes": [
    {
      "children": [
        1
      ],
      "matrix": [
        1.0,
        0.0,
        0.0,
        0.0,
        0.0,
        2.220446049250313e-16,
        -1.0,
        0.0,
        0.0,
        1.0,
        2.220446049250313e-16,
        0.0,
        0.0,
        0.0,
        0.0,
        1.0
      ],
      "name": "Sketchfab_model"
    },
    {
      "children": [
        2
      ],
      "matrix": [
        0.009999999776482582,
        0.0,
        0.0,
        0.0,
        0.0,
        0.0,
        0.009999999776482582,
        0.0,
        0.0,
        -0.009999999776482582,
        0.0,
        0.0,
        0.0,
        0.0,
        0.0,
        1.0
      ],
      "name": "0fca22656817421d9096be5d72e69f19.fbx"
    },
    {
      "children": [
        3,
        6,
        8,
        10
      ],
      "name": "RootNode"
    },
    {
      "children": [
        4
      ],
      "matrix": [
        -29.086477364379697,
        -5.518905590722295,
        -95.51711910171437,
        0.0,
        56.63932069164076,
        79.46722539115298,
        -21.839126361216156,
        0.0,
        77.11007920637729,
        -60.452475336912016,
        -19.988344364310564,
        0.0,
        407.6245422363281,
        590.38623046875,
        -100.54539489746094,
        1.0
      ],
      "name": "Light"
    },
    {
      "children": [
        5
      ],
      "matrix": [
        1.0,
        0.0,
        0.0,
        0.0,
        0.0,
        2.220446049250313e-16,
        1.0,
        0.0,
        0.0,
        -1.0,
        2.220446049250313e-16,
        0.0,
        0.0,
        0.0,
        0.0,
        1.0
      ],
      "name": "Object_4"
    },
    {
      "name": "Object_5"
    },
    {
      "children": [
        7
      ],
      "matrix": [
        -65.1558127516791,
        -44.52713915455176,
        -61.417049289096546,
        0.0,
        -32.401349332924404,
        89.53957282709818,
        -30.5420854760369,
        0.0,
        68.59207001076241,
        8.666908837178815e-06,
        -72.76761921184274,
        0.0,
        735.88916015625,
        495.8309326171875,
        692.5791015625,
        1.0
      ],
      "name": "Camera"
    },
    {
      "name": "Object_7"
    },
    {
      "children": [
        9
      ],
      "matrix": [
        1.4938025207537686,
        -4.562621801858341e-16,
        0.09202805295007287,
        0.0,
        -4.022673832132261e-09,
        1.4966344833374008,
        6.529618742153718e-08,
        0.0,
        -0.09202805295007278,
        -6.541998684140584e-08,
        1.493802520753767,
        0.0,
        -20.450834274291992,
        27.549076080322266,
        0.0,
        1.0
      ],
      "name": "Ch36"
    },
    {
      "mesh": 0,
      "name": "Ch36_Ch36_Body_0"
    },
    {
      "children": [
        11
      ],
      "matrix": [
        209.4338836669922,
        0.0,
        0.0,
        0.0,
        0.0,
        -3.412111061469615e-05,
        -209.43388366698943,
        0.0,
        0.0,
        209.43388366698943,
        -3.412111061469615e-05,
        0.0,
        0.0,
        462.90484619140625,
        0.0,
        1.0
      ],
      "name": "Plane"
    },
    {
      "mesh": 1,
      "name": "Plane__0"
    }
  ],
  "samplers": [
    {
      "magFilter": 9729,
      "minFilter": 9987,
      "wrapS": 10497,
      "wrapT": 10497
    }
  ],
  "scene": 0,
  "scenes": [
    {
      "name": "Sketchfab_Scene",
      "nodes": [
        0
      ]
    }
  ],
  "textures": [
    {
      "sampler": 0,
      "source": 0
    },
    {
      "sampler": 0,
      "source": 1
    },
    {
      "sampler": 0,
      "source": 2
    }
  ]
}
